<svg id="Layer_2" data-name="Layer 2" xmlns="http://www.w3.org/2000/svg" viewBox="0 0 297.33 94.51"><defs><style>.cls-1{fill:#fff;}</style></defs><path class="cls-1" d="M159.56,109.66c-5-2.41-9.26-4.49-9.26-9.1s3.57-7.41,9.56-7.41c3.84,0,6,.64,9.66,2.09l1-6.35a34.61,34.61,0,0,0-10.94-1.8c-10.11,0-16.64,5.55-16.64,14.15s6.39,11.76,12.57,14.69c5.22,2.46,10.15,4.79,10.15,10.44,0,6.61-6.4,9-10.7,9-3.47,0-9.55-1.77-12.39-2.83l.55,6.76c2.75.82,7.94,2.14,10.94,2.14,12.07,0,19-5.66,19-15.52S165.87,112.72,159.56,109.66Z" transform="translate(-69.4 -62.62)"/><polygon class="cls-1" points="225.83 33.62 252.95 33.62 252.95 39.27 232.77 39.27 232.77 53.26 251.15 53.26 251.15 59.79 232.77 59.79 232.77 72.79 252.95 72.79 252.95 78.44 225.83 78.44 225.83 33.62"/><polygon class="cls-1" points="273.25 63.24 256.02 33.61 264.14 33.61 276.85 57.27 289.21 33.61 297.33 33.61 280.18 63.24 280.18 78.44 273.25 78.44 273.25 63.24"/><path class="cls-1" d="M211.91,122.36c0,12.48-6.26,19.17-17.12,19.17s-17.11-6.69-17.11-19.17V96.23h6.94v25.31c0,8.53,2.65,13.76,10.79,13.76s9.56-5.23,9.56-13.76V96.23h6.94Z" transform="translate(-69.4 -62.62)"/><path class="cls-1" d="M288.29,134.62a20.91,20.91,0,0,1-8.75-8.91l-1.12-2.12c5.92-2,9.08-8.25,9.08-13.44,0-10.73-9.23-13.92-18.81-13.92H256.83v44.83h6.94V125.15s3.51,0,7.39-.33l2.21,4.16a27.88,27.88,0,0,0,11.7,11.85,13.14,13.14,0,0,0,3.54,1.32l1.26-6.88A6.32,6.32,0,0,1,288.29,134.62ZM263.77,119.5V101.88h6.66c6.38,0,9.71,4.35,9.71,8.4,0,4.3-3.88,9.22-10.48,9.22Z" transform="translate(-69.4 -62.62)"/><path class="cls-1" d="M241.68,125.71l-1.12-2.12c5.92-2,9.08-8.25,9.08-13.44,0-10.73-9.23-13.92-18.81-13.92H219v44.83h6.94V125.15s3.51,0,7.39-.33l2.21,4.16a27.88,27.88,0,0,0,11.7,11.85,13.26,13.26,0,0,0,3.54,1.32l1.26-6.88a6.32,6.32,0,0,1-1.58-.65A21,21,0,0,1,241.68,125.71Zm-15.77-6.21V101.88h6.66c6.38,0,9.71,4.35,9.71,8.4,0,4.3-3.88,9.22-10.47,9.22Z" transform="translate(-69.4 -62.62)"/><path class="cls-1" d="M177.47,84.4a5.79,5.79,0,0,1,6-5.91,5.27,5.27,0,0,1,4.87,2.79l-2.09,1a3.14,3.14,0,0,0-2.78-1.66,3.76,3.76,0,0,0,0,7.51,3.11,3.11,0,0,0,2.78-1.66l2.09,1a5.31,5.31,0,0,1-4.87,2.81A5.79,5.79,0,0,1,177.47,84.4Z" transform="translate(-69.4 -62.62)"/><path class="cls-1" d="M191.75,90.11V78.68h2.43V90.11Z" transform="translate(-69.4 -62.62)"/><path class="cls-1" d="M201,90.11V80.82h-3.34V78.68h9.12v2.14h-3.33v9.29Z" transform="translate(-69.4 -62.62)"/><path class="cls-1" d="M213.25,90.11V85.43l-4.4-6.75h2.78l2.84,4.59,2.81-4.59h2.78l-4.37,6.75v4.68Z" transform="translate(-69.4 -62.62)"/><path class="cls-1" d="M233.62,78.49a5.92,5.92,0,1,1-6,5.91A5.74,5.74,0,0,1,233.62,78.49Zm0,2.16a3.77,3.77,0,1,0,3.48,3.75A3.46,3.46,0,0,0,233.62,80.65Z" transform="translate(-69.4 -62.62)"/><path class="cls-1" d="M243.39,90.11V78.68h6.39v2.09h-4v2.48h3.84v2.1h-3.84v4.76Z" transform="translate(-69.4 -62.62)"/><path class="cls-1" d="M73.34,62.62l1.4,18.13L71.37,82.1l-.85,59.08c8.08-4.86,18.9-7.68,31.49-7.68,2.14,0,4.18.06,6.18.15l-2.48-42.16C105,77.65,73.34,62.62,73.34,62.62Z" transform="translate(-69.4 -62.62)"/><path class="cls-1" d="M131.31,137.69l-2.37-29.26-.89-11a42.66,42.66,0,0,1-8,.69,34.87,34.87,0,0,1-10.63-1.64l2,37.39A73,73,0,0,1,131.31,137.69Z" transform="translate(-69.4 -62.62)"/><path class="cls-1" d="M108.68,136.86c-2.22-.12-4.45-.18-6.67-.18A68,68,0,0,0,83.7,139a48.38,48.38,0,0,1,12.82,10.6,135.63,135.63,0,0,1,23.06-3.22A54.56,54.56,0,0,0,108.68,136.86Z" transform="translate(-69.4 -62.62)"/><path class="cls-1" d="M79.36,140.47c-1.47.56-2.9,1.15-4.24,1.81-3.28,1.63-5.87,5.06-5.71,8.49s3,5,4.88,6.35A107.82,107.82,0,0,1,93,150.5,41,41,0,0,0,79.36,140.47Z" transform="translate(-69.4 -62.62)"/><path class="cls-1" d="M139.55,146.65c-4.25-5.23-13.93-8.1-24.8-9.3a52.54,52.54,0,0,1,8.83,9c1.06,0,2.11-.08,3.19-.08Q133.42,146.23,139.55,146.65Z" transform="translate(-69.4 -62.62)"/></svg>